<svg width="176" height="624" viewBox="0 0 176 624" fill="none" xmlns="http://www.w3.org/2000/svg">
<path d="M5.5 5.5H170.5V528.453C167.449 546.331 161.438 559.901 149.009 573.389C136.634 586.819 117.757 600.323 88.4942 617.631C59.9176 601.007 41.3386 587.834 28.8337 574.409C16.255 560.904 9.64101 546.942 5.5 528.315V5.5Z" fill="#6C1A31" stroke="#D37E01" stroke-width="11"/>
<g clip-path="url(#clip0_201_64)">
<path d="M119.746 251.775C118.722 251.183 117.56 250.866 116.366 250.866H113.531C112.784 250.866 112.049 250.665 111.441 250.253C110.94 249.925 110.343 249.407 109.714 248.625H116.526C117.304 248.625 118.083 248.826 118.744 249.249C119.842 249.946 121.419 251.215 122.048 253.107L119.746 251.775ZM141.151 268.128C136.45 260.527 132.25 254.999 130.321 252.578C129.66 251.743 129.276 250.728 129.18 249.661C128.977 247.335 127.997 242.864 123.711 239.682C117.667 235.19 118.999 231.49 118.999 231.49C118.999 231.49 119.372 228.932 118.882 226.469C118.882 226.469 121.355 228.319 121.27 232.357C121.238 233.721 121.526 235.084 122.293 236.215C123.125 237.431 124.447 238.583 126.376 238.266C126.376 238.266 124.159 235.803 125.758 232.452C127.357 229.112 123.178 218.277 116.516 215.106C116.516 215.106 119.98 220.127 116.516 220.56C116.516 220.56 115.801 208.14 101.943 207.791C88.4045 207.453 78.8529 214.25 78.4159 214.567C78.5758 214.239 81.4327 209.123 95.2804 206.734C95.2804 206.734 87.9994 194.398 68.811 203.119C68.811 203.119 73.0751 203.827 75.2071 205.413C75.2071 205.413 58.5985 204.8 45.8915 221.089C45.8915 221.089 42.0752 226.733 44.559 234.397L47.3093 231.659C47.3093 231.659 49.4414 234.038 44.3778 237.653C39.3142 241.268 26.4366 250.781 34.6983 264.164C34.6983 264.164 37.8964 258.53 41.8939 260.115C41.8939 260.115 30.253 270.601 38.1629 281.256C38.1629 281.256 41.3609 285.136 40.5614 290.241C40.5614 290.241 41.8939 288.307 41.8939 285.569L47.9383 298.877V384.763C47.9383 384.763 49.0043 411.358 77.2539 422.108C77.2539 422.108 105.322 430.565 121.313 411.718C121.313 411.718 127.176 404.318 126.824 386.517C126.462 368.727 126.995 348.823 126.995 348.823C126.995 348.823 132.954 349.7 132.325 355.334C132.325 355.334 135.437 352.692 133.838 346.001C133.838 346.001 136.685 346.001 138.817 349.436C138.817 349.436 142.367 343.887 137.751 338.601C137.751 338.601 140.053 338.337 141.215 340.536C141.215 340.536 142.185 330.589 129.926 331.73C129.926 331.73 129.574 330.409 125.843 329.796C125.843 329.796 129.393 323.623 125.662 320.103C125.662 320.103 124.329 328.21 117.933 328.21C117.933 328.21 114.735 322.132 107.721 326.361C107.721 326.361 104.256 328.115 104.789 325.388C104.789 325.388 105.663 323.549 107.806 324.416C107.806 324.416 107.007 321.604 101.325 323.359C101.325 323.359 96.4423 325.473 97.1459 334.288C97.8601 343.094 96.2611 343.538 100.877 345.388C105.504 347.237 105.674 349.436 105.504 351.466C105.322 353.485 105.504 391.803 105.504 391.803C105.504 391.803 106.527 405.46 87.9994 402.68C69.4826 399.91 69.0775 380.355 69.0775 380.355L68.811 277.419C68.811 277.419 74.0025 268.307 80.0043 270.02C80.0043 270.02 79.6098 277.948 82.9358 279.406C82.9358 279.406 87.072 270.02 96.1332 273.191C96.1332 273.191 89.5985 287.07 100.397 295.135C100.397 295.135 96.6662 279.808 118.648 286.806C118.648 286.806 122.507 288.264 126.462 298.433L126.824 291.562C126.824 291.562 138.817 292.799 140.149 280.728L135.171 275.094C134.116 273.889 134.137 272.092 135.235 270.918C135.704 270.411 136.344 270.157 136.994 270.157C137.569 270.157 138.156 270.369 138.614 270.781L141.087 273.043C140.501 272.715 133.348 268.688 136.503 273.593C139.787 278.698 141.386 275.263 141.119 281.605C141.119 281.605 147.579 278.529 141.151 268.128Z" fill="#D37E01"/>
</g>
<defs>
<clipPath id="clip0_201_64">
<rect width="112" height="224" fill="white" transform="translate(32 200)"/>
</clipPath>
</defs>
</svg>
