<svg width="112" height="224" viewBox="0 0 112 224" fill="none" xmlns="http://www.w3.org/2000/svg">
<g clip-path="url(#clip0_201_26)">
<path d="M87.7456 51.775C86.7222 51.183 85.5602 50.8659 84.3663 50.8659H81.5307C80.7845 50.8659 80.0489 50.6651 79.4413 50.2528C78.9402 49.9251 78.3433 49.4072 77.7143 48.6249H84.5262C85.3044 48.6249 86.0826 48.8258 86.7435 49.2486C87.8415 49.9463 89.4193 51.2147 90.0482 53.1068L87.7456 51.775ZM109.151 68.1276C104.45 60.5274 100.25 54.999 98.3205 52.5783C97.6596 51.7433 97.2758 50.7285 97.1799 49.6609C96.9773 47.3353 95.9966 42.864 91.7112 39.6823C85.6668 35.1898 86.9994 31.4901 86.9994 31.4901C86.9994 31.4901 87.3725 28.9321 86.8821 26.4691C86.8821 26.4691 89.3553 28.319 89.27 32.3569C89.238 33.7205 89.5258 35.0841 90.2934 36.2151C91.1249 37.4308 92.4467 38.5829 94.3763 38.2658C94.3763 38.2658 92.1589 35.8029 93.7579 32.452C95.357 29.1118 91.1782 18.277 84.5155 15.1058C84.5155 15.1058 87.9801 20.1268 84.5155 20.5602C84.5155 20.5602 83.8013 8.13983 69.943 7.791C56.4045 7.45274 46.8529 14.2496 46.4159 14.5667C46.5758 14.239 49.4327 9.12289 63.2804 6.73395C63.2804 6.73395 55.9994 -5.60185 36.811 3.11883C36.811 3.11883 41.0751 3.82705 43.2071 5.41263C43.2071 5.41263 26.5985 4.79954 13.8915 21.0887C13.8915 21.0887 10.0752 26.7334 12.559 34.397L15.3093 31.6593C15.3093 31.6593 17.4414 34.0376 12.3778 37.6527C7.31416 41.2679 -5.56339 50.7813 2.69828 64.1636C2.69828 64.1636 5.89635 58.5295 9.89394 60.1151C9.89394 60.1151 -1.74703 70.6011 6.16286 81.2562C6.16286 81.2562 9.36093 85.1355 8.56141 90.2411C8.56141 90.2411 9.89394 88.3067 9.89394 85.5689L15.9383 98.8772V184.763C15.9383 184.763 17.0043 211.358 45.2539 222.108C45.2539 222.108 73.3223 230.565 89.3126 211.718C89.3126 211.718 95.1758 204.318 94.824 186.517C94.4615 168.727 94.9945 148.823 94.9945 148.823C94.9945 148.823 100.954 149.7 100.325 155.334C100.325 155.334 103.437 152.692 101.838 146.001C101.838 146.001 104.685 146.001 106.817 149.436C106.817 149.436 110.367 143.887 105.751 138.601C105.751 138.601 108.053 138.337 109.215 140.536C109.215 140.536 110.185 130.589 97.9261 131.73C97.9261 131.73 97.5743 130.409 93.8432 129.796C93.8432 129.796 97.3931 123.623 93.662 120.103C93.662 120.103 92.3295 128.21 85.9333 128.21C85.9333 128.21 82.7353 122.132 75.7208 126.361C75.7208 126.361 72.2563 128.115 72.7893 125.388C72.7893 125.388 73.6634 123.549 75.8061 124.416C75.8061 124.416 75.0066 121.604 69.3247 123.359C69.3247 123.359 64.4423 125.473 65.1459 134.288C65.8601 143.094 64.2611 143.538 68.877 145.388C73.5035 147.237 73.6741 149.436 73.5035 151.466C73.3223 153.485 73.5035 191.803 73.5035 191.803C73.5035 191.803 74.5269 205.46 55.9994 202.68C37.4826 199.91 37.0775 180.355 37.0775 180.355L36.811 77.4191C36.811 77.4191 42.0025 68.3073 48.0043 70.0197C48.0043 70.0197 47.6098 77.9476 50.9358 79.4063C50.9358 79.4063 55.072 70.0197 64.1332 73.1908C64.1332 73.1908 57.5985 87.07 68.3973 95.1353C68.3973 95.1353 64.6662 79.808 86.6476 86.8057C86.6476 86.8057 90.5066 88.2644 94.4615 98.4333L94.824 91.5624C94.824 91.5624 106.817 92.7992 108.149 80.7276L103.171 75.0935C102.116 73.8885 102.137 72.0915 103.235 70.9182C103.704 70.4108 104.344 70.1571 104.994 70.1571C105.569 70.1571 106.156 70.3685 106.614 70.7808L109.087 73.0429C108.501 72.7152 101.348 68.6878 104.503 73.5925C107.787 78.6981 109.386 75.2627 109.119 81.605C109.119 81.605 115.579 78.529 109.151 68.1276Z" fill="#D37E01"/>
</g>
<defs>
<clipPath id="clip0_201_26">
<rect width="112" height="224" fill="white"/>
</clipPath>
</defs>
</svg>
