<svg width="176" height="624" viewBox="0 0 176 624" fill="none" xmlns="http://www.w3.org/2000/svg">
<path d="M5.5 5.5H170.5V528.453C167.449 546.331 161.438 559.901 149.009 573.389C136.634 586.819 117.757 600.323 88.4942 617.631C59.9176 601.007 41.3386 587.834 28.8337 574.409C16.255 560.904 9.64101 546.942 5.5 528.315V5.5Z" fill="#BA7625" stroke="#5E3225" stroke-width="11"/>
<g clip-path="url(#clip0_201_65)">
<path d="M140.171 214.202C139.703 213.472 138.787 212.533 137.403 212.064C136.716 211.813 135.925 211.709 135.082 211.74C134.884 211.751 134.645 211.74 134.468 211.772C134.249 211.813 134.02 211.845 133.792 211.876C133.354 211.97 132.959 212.074 132.532 212.23C131.679 212.533 130.867 213.013 130.087 213.576C129.702 213.868 129.348 214.191 128.983 214.515C128.65 214.88 128.286 215.203 127.984 215.599C126.694 217.101 125.705 218.853 124.893 220.554C124.529 221.419 124.134 222.243 123.842 223.067C123.52 223.87 123.28 224.663 123.051 225.383C122.812 226.113 122.656 226.791 122.469 227.385C122.281 227.98 122.167 228.512 122.063 228.939C121.844 229.815 121.719 230.305 121.719 230.305C121.719 230.305 121.771 229.794 121.865 228.908C121.917 228.459 121.979 227.917 122.094 227.302C122.198 226.686 122.281 225.977 122.489 225.237C122.833 223.735 123.312 221.982 124.05 220.178C124.456 219.292 124.862 218.363 125.393 217.487C125.913 216.601 126.517 215.735 127.193 214.921C127.516 214.515 127.922 214.16 128.276 213.774C128.671 213.43 129.067 213.075 129.493 212.773C130.347 212.157 131.273 211.667 132.241 211.354C132.709 211.208 133.24 211.083 133.698 211.031C133.927 211.01 134.156 211 134.385 210.979C134.655 210.948 134.853 210.979 135.092 210.989C136.008 211.01 136.872 211.198 137.611 211.521C138.35 211.834 138.953 212.283 139.401 212.752C139.838 213.221 140.14 213.701 140.348 214.108C140.744 214.921 140.796 215.443 140.796 215.443C140.796 215.443 140.65 214.942 140.171 214.202ZM108.887 277.334C108.887 277.334 109.231 271.337 114.517 271.503C119.815 271.681 115.652 280.63 108.887 277.334ZM61.4825 271.503C66.7694 271.337 67.1128 277.334 67.1128 277.334C60.3482 280.63 56.1853 271.681 61.4825 271.503ZM53.9373 228.939C53.8333 228.512 53.7188 227.98 53.5315 227.385C53.3441 226.791 53.188 226.113 52.9487 225.383C52.7197 224.663 52.4803 223.87 52.1577 223.067C51.8663 222.243 51.4708 221.419 51.1066 220.554C50.2948 218.853 49.3062 217.101 48.0157 215.599C47.7139 215.203 47.3496 214.88 47.0166 214.515C46.6523 214.191 46.2985 213.868 45.9134 213.576C45.1329 213.013 44.3211 212.533 43.4677 212.23C43.041 212.074 42.6456 211.97 42.2085 211.876C41.9795 211.845 41.7506 211.813 41.532 211.772C41.3551 211.74 41.1157 211.751 40.918 211.74C40.075 211.709 39.2841 211.813 38.5972 212.064C37.213 212.533 36.2972 213.472 35.8289 214.202C35.3501 214.942 35.2044 215.443 35.2044 215.443C35.2044 215.443 35.2565 214.921 35.652 214.108C35.8601 213.701 36.1619 213.221 36.599 212.752C37.0465 212.283 37.6501 211.834 38.389 211.521C39.1279 211.198 39.9917 211.01 40.9076 210.989C41.1469 210.979 41.3447 210.948 41.6153 210.979C41.8442 211 42.0732 211.01 42.3021 211.031C42.76 211.083 43.2908 211.208 43.7591 211.354C44.727 211.667 45.6532 212.157 46.5066 212.773C46.9333 213.075 47.3288 213.43 47.7243 213.774C48.0781 214.16 48.484 214.515 48.8066 214.921C49.4831 215.735 50.0867 216.601 50.6071 217.487C51.1378 218.363 51.5437 219.292 51.9496 220.178C52.6885 221.982 53.1672 223.735 53.5107 225.237C53.7188 225.977 53.8021 226.686 53.9061 227.302C54.0206 227.917 54.083 228.459 54.1351 228.908C54.2287 229.794 54.2808 230.305 54.2808 230.305C54.2808 230.305 54.1559 229.815 53.9373 228.939ZM140.764 208.413C139.099 207.214 136.997 206.828 134.957 207.068C117.192 209.195 116.953 233.956 116.953 233.956C114.778 234.999 111.572 231.004 111.572 231.004C110.708 233.351 113.269 237.658 113.269 237.658L101.425 293.323H74.5748L62.7314 237.658C62.7314 237.658 65.2916 233.351 64.4278 231.004C64.4278 231.004 61.2224 234.999 59.0473 233.956C59.0473 233.956 58.8079 209.195 41.0429 207.068C39.0031 206.828 36.9008 207.214 35.2357 208.413C32.509 210.405 29.928 214.994 34.5072 225.445C34.5072 225.445 39.8877 234.311 43.4365 237.784L36.5886 237.867C36.5886 237.867 40.8347 241.518 41.4487 247.775C42.0003 253.554 41.532 383.51 41.4592 403.556C41.4487 405.11 40.7098 406.549 39.4922 407.509C36.8592 409.574 32.9565 413.621 37.1922 417C37.1922 417 35.985 414.486 38.1497 414.486H58.1002C58.1002 414.486 63.9074 413.704 63.8242 405.36C63.7305 397.016 63.8242 315.309 63.8242 315.309H77.9571V314.808C77.9571 313.244 79.2268 311.961 80.7982 311.961H95.2018C96.7732 311.961 98.0429 313.244 98.0429 314.808V315.309H112.176C112.176 315.309 112.27 397.016 112.176 405.36C112.093 413.704 117.9 414.486 117.9 414.486H137.85C140.015 414.486 138.808 417 138.808 417C143.043 413.621 139.141 409.574 136.508 407.509C135.29 406.549 134.551 405.11 134.541 403.556C134.468 383.51 134 253.554 134.551 247.775C135.165 241.518 139.411 237.867 139.411 237.867L132.563 237.784C136.112 234.311 141.493 225.445 141.493 225.445C146.072 214.994 143.491 210.405 140.764 208.413Z" fill="#5E3225"/>
<path d="M90.6539 322.787C89.582 322.787 88.7182 322.213 88.7182 321.504C88.7182 320.795 89.582 320.221 90.6539 320.221C91.7155 320.221 92.5793 320.795 92.5793 321.504C92.5793 322.213 91.7155 322.787 90.6539 322.787ZM84.8571 322.787C83.7956 322.787 82.9318 322.213 82.9318 321.504C82.9318 320.795 83.7956 320.221 84.8571 320.221C85.9291 320.221 86.7929 320.795 86.7929 321.504C86.7929 322.213 85.9291 322.787 84.8571 322.787ZM98.3864 316.529L95.998 314.262C95.36 313.655 94.5139 313.317 93.6345 313.317H81.7922C80.9763 313.317 80.1864 313.608 79.5651 314.138L76.9685 316.352C76.9685 316.352 76.011 324.007 87.7191 324.007C99.4272 324.007 98.3864 316.529 98.3864 316.529Z" fill="#5E3225"/>
</g>
<defs>
<clipPath id="clip0_201_65">
<rect width="112" height="224" fill="white" transform="translate(32 200)"/>
</clipPath>
</defs>
</svg>
