<svg width="112" height="224" viewBox="0 0 112 224" fill="none" xmlns="http://www.w3.org/2000/svg">
<g clip-path="url(#clip0_201_27)">
<path d="M108.171 14.2017C107.703 13.4716 106.787 12.533 105.403 12.0636C104.716 11.8133 103.925 11.709 103.082 11.7403C102.884 11.7507 102.645 11.7403 102.468 11.7716C102.249 11.8133 102.02 11.8446 101.792 11.8759C101.354 11.9697 100.959 12.074 100.532 12.2305C99.6789 12.533 98.8671 13.0127 98.0866 13.5759C97.7015 13.868 97.3477 14.1913 96.9834 14.5146C96.6504 14.8797 96.2861 15.203 95.9843 15.5993C94.6938 17.1012 93.7052 18.8535 92.8934 20.5535C92.5292 21.4192 92.1337 22.2432 91.8423 23.0671C91.5197 23.8702 91.2803 24.6629 91.0513 25.3826C90.812 26.1126 90.6559 26.7906 90.4685 27.3851C90.2812 27.9796 90.1667 28.5115 90.0626 28.9391C89.8441 29.8152 89.7192 30.3055 89.7192 30.3055C89.7192 30.3055 89.7712 29.7944 89.8649 28.9078C89.9169 28.4594 89.9794 27.917 90.0939 27.3016C90.1979 26.6863 90.2812 25.9771 90.4893 25.2365C90.8328 23.7346 91.3115 21.9824 92.0504 20.178C92.4563 19.2915 92.8622 18.3632 93.3929 17.4871C93.9133 16.6006 94.5169 15.7349 95.1934 14.9214C95.516 14.5146 95.9219 14.16 96.2757 13.7741C96.6712 13.4299 97.0667 13.0753 97.4934 12.7728C98.3467 12.1575 99.273 11.6673 100.241 11.3544C100.709 11.2084 101.24 11.0832 101.698 11.0311C101.927 11.0102 102.156 10.9998 102.385 10.9789C102.655 10.9476 102.853 10.9789 103.092 10.9893C104.008 11.0102 104.872 11.1979 105.611 11.5213C106.35 11.8342 106.953 12.2826 107.401 12.752C107.838 13.2213 108.14 13.7011 108.348 14.1079C108.744 14.9214 108.796 15.4429 108.796 15.4429C108.796 15.4429 108.65 14.9423 108.171 14.2017ZM76.8872 77.3337C76.8872 77.3337 77.2306 71.3365 82.5175 71.5034C87.8147 71.6807 83.6518 80.6295 76.8872 77.3337ZM29.4825 71.5034C34.7694 71.3365 35.1128 77.3337 35.1128 77.3337C28.3482 80.6295 24.1853 71.6807 29.4825 71.5034ZM21.9373 28.9391C21.8333 28.5115 21.7188 27.9796 21.5315 27.3851C21.3441 26.7906 21.188 26.1126 20.9487 25.3826C20.7197 24.6629 20.4803 23.8702 20.1577 23.0671C19.8663 22.2432 19.4708 21.4192 19.1066 20.5535C18.2948 18.8535 17.3062 17.1012 16.0157 15.5993C15.7139 15.203 15.3496 14.8797 15.0166 14.5146C14.6523 14.1913 14.2985 13.868 13.9134 13.5759C13.1329 13.0127 12.3211 12.533 11.4677 12.2305C11.041 12.074 10.6456 11.9697 10.2085 11.8759C9.97951 11.8446 9.75056 11.8133 9.532 11.7716C9.35508 11.7403 9.11571 11.7507 8.91798 11.7403C8.075 11.709 7.28406 11.8133 6.59718 12.0636C5.21303 12.533 4.2972 13.4716 3.82887 14.2017C3.35014 14.9423 3.20445 15.4429 3.20445 15.4429C3.20445 15.4429 3.25648 14.9214 3.65195 14.1079C3.8601 13.7011 4.16191 13.2213 4.59901 12.752C5.04652 12.2826 5.65013 11.8342 6.38904 11.5213C7.12794 11.1979 7.99175 11.0102 8.90758 10.9893C9.14694 10.9789 9.34468 10.9476 9.61526 10.9789C9.84422 10.9998 10.0732 11.0102 10.3021 11.0311C10.76 11.0832 11.2908 11.2084 11.7591 11.3544C12.727 11.6673 13.6532 12.1575 14.5066 12.7728C14.9333 13.0753 15.3288 13.4299 15.7243 13.7741C16.0781 14.16 16.484 14.5146 16.8066 14.9214C17.4831 15.7349 18.0867 16.6006 18.6071 17.4871C19.1378 18.3632 19.5437 19.2915 19.9496 20.178C20.6885 21.9824 21.1672 23.7346 21.5107 25.2365C21.7188 25.9771 21.8021 26.6863 21.9061 27.3016C22.0206 27.917 22.083 28.4594 22.1351 28.9078C22.2287 29.7944 22.2808 30.3055 22.2808 30.3055C22.2808 30.3055 22.1559 29.8152 21.9373 28.9391ZM108.764 8.41316C107.099 7.21373 104.997 6.82781 102.957 7.0677C85.1921 9.19539 84.9527 33.9559 84.9527 33.9559C82.7776 34.9989 79.5722 31.0042 79.5722 31.0042C78.7084 33.351 81.2686 37.6585 81.2686 37.6585L69.4252 93.3227H42.5748L30.7314 37.6585C30.7314 37.6585 33.2916 33.351 32.4278 31.0042C32.4278 31.0042 29.2224 34.9989 27.0473 33.9559C27.0473 33.9559 26.8079 9.19539 9.04287 7.0677C7.00306 6.82781 4.90081 7.21373 3.23567 8.41316C0.508989 10.4053 -2.07199 14.9944 2.50717 25.4451C2.50717 25.4451 7.88767 34.3105 11.4365 37.7837L4.5886 37.8671C4.5886 37.8671 8.83472 41.5176 9.44875 47.7755C10.0003 53.5536 9.532 183.51 9.45916 203.556C9.44875 205.11 8.70984 206.549 7.4922 207.509C4.85919 209.574 0.956502 213.621 5.19222 217C5.19222 217 3.98498 214.486 6.14968 214.486H26.1002C26.1002 214.486 31.9074 213.704 31.8242 205.36C31.7305 197.016 31.8242 115.309 31.8242 115.309H45.9571V114.808C45.9571 113.244 47.2268 111.961 48.7982 111.961H63.2018C64.7732 111.961 66.0429 113.244 66.0429 114.808V115.309H80.1758C80.1758 115.309 80.2695 197.016 80.1758 205.36C80.0926 213.704 85.8998 214.486 85.8998 214.486H105.85C108.015 214.486 106.808 217 106.808 217C111.043 213.621 107.141 209.574 104.508 207.509C103.29 206.549 102.551 205.11 102.541 203.556C102.468 183.51 102 53.5536 102.551 47.7755C103.165 41.5176 107.411 37.8671 107.411 37.8671L100.563 37.7837C104.112 34.3105 109.493 25.4451 109.493 25.4451C114.072 14.9944 111.491 10.4053 108.764 8.41316Z" fill="#5E3225"/>
<path d="M58.6539 122.787C57.582 122.787 56.7182 122.213 56.7182 121.504C56.7182 120.795 57.582 120.221 58.6539 120.221C59.7155 120.221 60.5793 120.795 60.5793 121.504C60.5793 122.213 59.7155 122.787 58.6539 122.787ZM52.8571 122.787C51.7956 122.787 50.9318 122.213 50.9318 121.504C50.9318 120.795 51.7956 120.221 52.8571 120.221C53.9291 120.221 54.7929 120.795 54.7929 121.504C54.7929 122.213 53.9291 122.787 52.8571 122.787ZM66.3864 116.529L63.998 114.262C63.36 113.655 62.5139 113.317 61.6345 113.317H49.7922C48.9763 113.317 48.1864 113.608 47.5651 114.138L44.9685 116.352C44.9685 116.352 44.011 124.007 55.7191 124.007C67.4272 124.007 66.3864 116.529 66.3864 116.529Z" fill="#5E3225"/>
</g>
<defs>
<clipPath id="clip0_201_27">
<rect width="112" height="224" fill="white"/>
</clipPath>
</defs>
</svg>
