<svg width="176" height="624" viewBox="0 0 176 624" fill="none" xmlns="http://www.w3.org/2000/svg">
<path d="M5.5 5.5H170.5V528.453C167.449 546.331 161.438 559.901 149.009 573.389C136.634 586.819 117.757 600.323 88.4942 617.631C59.9176 601.007 41.3386 587.834 28.8337 574.409C16.255 560.904 9.64101 546.942 5.5 528.315V5.5Z" fill="#063E53" stroke="#799ABF" stroke-width="11"/>
<path d="M47.3485 225.661C44.4621 226.727 44.0679 228.643 43.8145 230.605C43.741 231.172 43.7793 231.948 44.447 232.136C45.5 232.434 45.4276 231.425 45.6338 230.837C46.1517 229.363 46.6203 227.872 47.3485 225.661ZM72.5914 273.226C72.5914 279.54 72.6266 285.855 72.5733 292.168C72.5532 294.47 73.2934 294.812 75.1831 293.588C79.4674 290.814 83.8451 288.184 88.1123 285.384C91.8736 282.916 93.9634 279.373 94.0127 274.824C94.0841 268.21 94.1636 261.592 93.9926 254.982C93.8679 250.2 90.5179 247.186 85.7238 246.709C81.3953 246.278 78.4486 249.082 75.0322 250.843C73.225 251.775 72.515 253.111 72.5542 255.187C72.6689 261.198 72.5944 267.213 72.5914 273.226ZM99.89 211.828C101.575 210.696 103.422 209.991 105.409 209.578C109.377 208.755 112.95 207.083 116.354 204.845C119.165 202.996 122.558 202.201 125.437 200.368C127.101 199.309 127.934 200.757 127.597 201.923C126.392 206.085 127.854 210.461 126.091 214.636C124.698 217.935 122.504 219.972 119.546 221.689C113.314 225.306 107.749 229.903 101.956 234.163C101.595 234.428 101.114 234.748 101.355 235.552C102.672 235.423 103.857 234.831 104.721 233.926C108.625 229.837 114.026 228.335 118.978 226.676C122.493 225.499 123.789 222.337 126.857 220.99C129.238 219.945 131.097 217.723 133.821 217.047C134.924 216.773 135.641 215.871 136.3 214.956C136.783 214.287 137.401 213.742 138.334 214.15C139.134 214.502 139.092 215.253 139.112 215.952C139.19 218.741 138.078 221.236 137.092 223.742C136.573 225.061 136.018 226.324 136.184 227.788C136.648 231.891 134.702 234.642 131.324 236.688C122.672 241.927 114.051 247.216 105.432 252.51C104.45 253.114 103.236 253.524 102.73 255.058C104.716 255.556 106.113 254.457 107.375 253.556C113.988 248.834 121.648 245.93 128.304 241.251C131.409 239.067 134.541 236.91 137.611 234.669C139.341 233.405 140.09 233.362 140.667 235.909C142.3 243.122 137.748 254.478 130.927 257.87C123.777 261.426 117.098 265.932 110.556 270.568C109.464 271.343 108.261 272.005 107.666 273.368C112.701 270.316 117.889 267.617 123.105 264.972C124.84 264.092 126.992 262.243 128.522 263.667C130.014 265.057 129.097 267.601 128.328 269.632C127.345 272.227 125.977 274.634 125.413 277.45C125.001 279.501 122.903 280.707 121.112 281.866C115.493 285.501 110.499 290.014 104.637 293.31C104.765 293.529 104.892 293.746 105.021 293.964C106.303 293.195 107.589 292.429 108.869 291.655C110.326 290.776 111.71 289.731 113.254 289.05C114.867 288.336 116.633 287.968 118.331 287.449C118.202 289.476 118.467 291.629 117.871 293.508C115.906 299.688 112.374 304.661 106.534 307.984C101.728 310.719 101.732 311.208 103.565 316.372C112.882 342.628 122.216 368.878 131.572 395.121C133.543 400.646 133.598 400.632 128.889 404.316C125.569 406.913 123.067 410.066 121.92 414.212C121.121 417.097 121.074 419.9 123.062 423.317C119.266 421.263 118.027 418.393 116.97 415.436C113.327 405.243 109.719 395.04 106.114 384.835C99.004 364.705 91.8726 344.582 84.8448 324.423C84.0302 322.088 83.2669 321.701 81.0654 322.999C72.8278 327.858 72.7765 327.786 72.7483 337.318C72.689 357.88 72.5824 378.44 72.6528 399.002C72.6628 401.876 71.7879 403.276 69.0584 404.23C62.6572 406.467 58.389 411.096 55.6847 417.258C54.7554 419.376 54.7876 421.537 55.1517 423.744C55.0642 423.83 54.9767 423.915 54.8892 424C52.4996 422.277 52.2221 419.645 52.1607 417.066C52.038 411.854 52.1104 406.637 52.1104 401.422C52.1084 350.576 52.1084 299.73 52.1074 248.884C52.1074 248.182 52.1718 247.472 52.0933 246.779C51.8811 244.889 52.8687 242.536 50.5174 241.393C47.9811 240.16 45.849 241.476 43.8999 242.98C40.5741 245.547 38.0096 248.686 36.8882 252.841C36.7364 253.402 36.7042 254.058 35.5376 254.321C34.8537 249.703 34.4303 245.119 36.7847 240.935C38.0056 238.764 38.2208 236.662 38.2178 234.344C38.2017 222.942 51.1731 212.106 62.459 214.131C64.0118 214.409 65.4138 214.227 66.875 213.796C72.5381 212.124 78.2082 210.472 83.8894 208.861C85.1113 208.515 86.5102 207.497 87.1016 209.911C87.4516 211.335 88.7861 210.557 89.5917 210.108C91.2541 209.182 92.7516 208.15 94.8806 208.951C95.9195 209.341 96.8689 208.21 97.8464 207.732C98.7073 207.311 99.6879 206.388 100.543 207.356C101.223 208.127 100.437 209.041 100.026 209.833C99.7965 210.274 99.5923 210.729 99.3771 211.177C99.2242 211.425 99.0714 211.672 98.9195 211.92C98.8109 212.027 98.7013 212.133 98.5927 212.238C98.7938 212.215 98.9939 212.193 99.1941 212.171C99.4264 212.057 99.6577 211.942 99.89 211.828Z" fill="#799ABF"/>
</svg>
