<svg width="112" height="224" viewBox="0 0 112 224" fill="none" xmlns="http://www.w3.org/2000/svg">
<path d="M15.3485 25.6607C12.4621 26.7274 12.0679 28.6431 11.8145 30.6052C11.741 31.1723 11.7793 31.9478 12.447 32.1362C13.5 32.4343 13.4276 31.4251 13.6338 30.8369C14.1517 29.3633 14.6203 27.8716 15.3485 25.6607ZM40.5914 73.226C40.5914 79.5404 40.6266 85.8547 40.5733 92.168C40.5532 94.4705 41.2934 94.8119 43.1831 93.5882C47.4674 90.8143 51.8451 88.1844 56.1123 85.3843C59.8736 82.9156 61.9634 79.3732 62.0127 74.8235C62.0841 68.21 62.1636 61.5916 61.9926 54.9821C61.8679 50.1998 58.5179 47.1862 53.7238 46.7087C49.3953 46.2777 46.4486 49.0818 43.0322 50.8434C41.225 51.7751 40.515 53.1107 40.5542 55.1866C40.6689 61.1977 40.5944 67.2129 40.5914 73.226ZM67.89 11.8285C69.5745 10.6963 71.422 9.99127 73.4093 9.5783C77.3767 8.7554 80.9499 7.0834 84.3542 4.84533C87.1651 2.99606 90.5584 2.20137 93.4367 0.368214C95.1011 -0.69139 95.9338 0.756995 95.5969 1.92337C94.3921 6.08523 95.8543 10.4606 94.0914 14.6356C92.6985 17.9353 90.5041 19.9719 87.5463 21.6892C81.314 25.3062 75.7485 29.9032 69.9557 34.1627C69.5947 34.4276 69.1139 34.7479 69.3553 35.5517C70.6718 35.4228 71.8575 34.8305 72.7214 33.926C76.6255 29.8367 82.026 28.3349 86.9781 26.676C90.493 25.4986 91.7893 22.3369 94.8567 20.9902C97.2382 19.9447 99.0967 17.7228 101.821 17.0469C102.924 16.7729 103.641 15.8715 104.3 14.9559C104.783 14.2871 105.401 13.7422 106.334 14.1501C107.134 14.5016 107.092 15.253 107.112 15.952C107.19 18.7411 106.078 21.236 105.092 23.7419C104.573 25.0614 104.018 26.3245 104.184 27.788C104.648 31.8914 102.702 34.6422 99.324 36.6878C90.672 41.9274 82.0512 47.2164 73.4324 52.5104C72.4498 53.1137 71.2359 53.5237 70.7301 55.0577C72.7163 55.5562 74.1132 54.4574 75.3754 53.5559C81.9878 48.834 89.6482 45.9302 96.3039 41.2506C99.4095 39.0669 102.541 36.9104 105.611 34.6693C107.341 33.4053 108.09 33.362 108.667 35.9093C110.3 43.122 105.748 54.4775 98.9268 57.8699C91.7773 61.4264 85.0984 65.9317 78.5564 70.568C77.4642 71.3425 76.2614 72.0053 75.666 73.3681C80.7005 70.3162 85.8889 67.6168 91.1055 64.9718C92.8403 64.0925 94.9925 62.2432 96.5221 63.6674C98.0136 65.0574 97.0974 67.6007 96.328 69.6322C95.3455 72.2269 93.9767 74.6341 93.4125 77.4504C93.0012 79.5011 90.9033 80.7067 89.1122 81.866C83.4934 85.5011 78.4991 90.0135 72.6369 93.3102C72.7646 93.5287 72.8923 93.7463 73.021 93.9639C74.3033 93.1953 75.5886 92.4288 76.8688 91.6553C78.3261 90.776 79.7099 89.7315 81.2537 89.0496C82.8668 88.3365 84.6328 87.9678 86.3314 87.4491C86.2017 89.4757 86.4672 91.6291 85.8708 93.5076C83.9057 99.6879 80.3737 104.661 74.5336 107.984C69.7284 110.719 69.7324 111.208 71.5648 116.372C80.8816 142.628 90.2164 168.878 99.5724 195.121C101.543 200.646 101.598 200.632 96.8892 204.316C93.5694 206.913 91.0672 210.066 89.9197 214.212C89.1212 217.097 89.074 219.9 91.0622 223.317C87.2657 221.263 86.0267 218.393 84.9697 215.436C81.3271 205.243 77.7187 195.04 74.1142 184.835C67.004 164.705 59.8726 144.582 52.8448 124.423C52.0302 122.088 51.2669 121.701 49.0654 122.999C40.8278 127.858 40.7765 127.786 40.7483 137.318C40.689 157.88 40.5824 178.44 40.6528 199.002C40.6628 201.876 39.7879 203.276 37.0584 204.23C30.6572 206.467 26.389 211.096 23.6847 217.258C22.7554 219.376 22.7876 221.537 23.1517 223.744C23.0642 223.83 22.9767 223.915 22.8892 224C20.4996 222.277 20.2221 219.645 20.1607 217.066C20.038 211.854 20.1104 206.637 20.1104 201.422C20.1084 150.576 20.1084 99.7302 20.1074 48.8844C20.1074 48.1823 20.1718 47.4722 20.0933 46.7793C19.8811 44.8887 20.8687 42.5358 18.5174 41.3926C15.9811 40.1598 13.849 41.4762 11.8999 42.98C8.57411 45.5474 6.00959 48.6859 4.88824 52.8408C4.73638 53.4018 4.70419 54.0585 3.53759 54.3214C2.85372 49.7032 2.43032 45.1193 4.78465 40.9353C6.00556 38.7637 6.22078 36.6616 6.21777 34.344C6.20167 22.9422 19.1731 12.1064 30.459 14.131C32.0118 14.409 33.4138 14.2267 34.875 13.7956C40.5381 12.1236 46.2082 10.4717 51.8894 8.86115C53.1113 8.51467 54.5102 7.49737 55.1016 9.91069C55.4516 11.3349 56.7861 10.5573 57.5917 10.1081C59.2541 9.18246 60.7516 8.15005 62.8806 8.9508C63.9195 9.3406 64.8689 8.2105 65.8464 7.73206C66.7073 7.31104 67.6879 6.38842 68.5427 7.35637C69.2225 8.12689 68.4371 9.04146 68.0258 9.83314C67.7965 10.2743 67.5923 10.7286 67.3771 11.1768C67.2242 11.4246 67.0714 11.6723 66.9195 11.9201C66.8109 12.0269 66.7013 12.1326 66.5927 12.2384C66.7938 12.2152 66.9939 12.1931 67.1941 12.1709C67.4264 12.0571 67.6577 11.9423 67.89 11.8285Z" fill="#799ABF"/>
</svg>
