<svg width="112" height="224" viewBox="0 0 112 224" fill="none" xmlns="http://www.w3.org/2000/svg">
<path d="M46.0949 200.492L54.4477 202.675C54.4477 202.675 36.5723 217.451 14.019 224C14.019 224 42.9204 206.369 46.0949 200.492Z" fill="#88898D"/>
<path d="M84.7594 50.2649C87.3094 50.544 88.1323 48.7174 89.1568 47.2323C89.3773 46.914 89.3542 46.4425 88.9683 46.1604C88.4782 45.8007 88.0141 46.0435 87.6121 46.3357C86.3842 47.2303 85.431 48.3497 84.7594 50.2649ZM72.5675 50.3294C73.3383 50.4654 73.8616 50.1742 73.61 49.609C72.9184 48.0555 71.9481 46.65 70.2962 45.9861C69.6957 45.7453 69.3178 46.3196 69.4321 46.8324C69.8341 48.6348 71.1672 49.6231 72.5675 50.3294ZM95.2081 105.563C93.6614 98.7699 98.1591 91.5884 90.944 86.6184C90.2093 89.1755 90.8728 91.6106 88.7699 93.4694C88.0482 92.0872 88.3769 90.6887 88.2286 89.4032C87.9309 86.825 86.9906 84.7123 84.3564 83.864C79.7896 82.394 78.4965 78.8194 78.27 74.5315C78.1437 72.1377 77.4651 70.3081 76.0508 68.0422C71.067 60.0568 65.6261 51.9092 67.3121 41.5601C67.6399 39.5492 67.9746 37.5181 69.2547 35.9413C74.5031 29.4702 70.3703 21.0626 64.5415 17.3913C58.7127 13.721 53.1967 14.2207 48.1167 18.8622C37.9065 28.1906 36.0942 43.6567 43.6501 55.6822C49.2263 64.5563 56.6799 71.6178 64.745 78.0638C75.2599 86.4663 85.2225 95.3736 92.6069 106.815C103.816 124.182 109.024 142.815 104.199 163.49C95.578 200.441 60.1191 206.468 37.0976 194.564C17.1363 184.242 4.08746 160.373 6.22953 137.937C7.0224 129.636 9.67067 122.027 16.1129 116.312C26.5205 107.079 42.8342 108.282 53.4793 119.116C59.4625 125.205 62.9107 132.75 64.8743 140.968C67.3893 151.495 67.2489 162.018 64.5195 172.531C63.7877 175.348 62.4285 176.707 59.5116 176.334C58.9202 176.259 58.3148 176.306 57.7174 176.267C53.1295 175.966 53.1786 175.963 53.0363 171.431C52.6263 158.366 49.0318 146.132 43.2421 134.518C41.7576 131.539 39.6596 128.958 36.6966 127.253C32.632 124.914 28.5714 125.848 26.0444 129.818C22.8408 134.851 22.7937 140.463 24.4627 145.801C28.2045 157.775 34.6738 168.016 45.4965 174.842C55.0501 180.868 73.6521 181.022 80.6186 165.954C83.7109 159.263 85.0811 152.196 84.3093 144.868C82.5481 128.145 74.2655 114.871 62.1078 103.821C55.5984 97.9054 48.7471 92.3682 42.2658 86.422C32.8054 77.7444 24.3675 68.148 20.9714 55.3759C15.8914 36.2748 20.373 17.7006 36.9452 6.59493C47.3268 -0.362853 58.5935 -2.71335 70.248 3.96938C75.6187 7.05031 79.4488 11.6375 81.9176 17.2986C83.6397 21.245 85.1713 25.282 86.0334 29.5336C86.3361 31.0227 86.8644 32.4191 87.7675 33.6573C92.5358 40.1909 92.608 47.2928 89.9416 54.5407C88.423 58.6674 86.4083 62.6118 84.598 66.6287C84.3534 67.1727 84.1189 67.9314 83.6718 68.1399C79.9029 69.9 81.3112 73.115 81.4616 75.9269C81.652 79.4965 84.0146 81.0843 87.122 82.0505C89.4184 82.7638 91.5103 83.9828 93.457 85.4014C97.4033 88.2768 98.7355 91.9834 97.5446 96.7347C96.871 99.4227 96.1293 102.095 95.2081 105.563Z" fill="#88898D"/>
</svg>
