<svg width="176" height="624" viewBox="0 0 176 624" fill="none" xmlns="http://www.w3.org/2000/svg">
<path d="M5.5 5.5H170.5V528.453C167.449 546.331 161.438 559.901 149.009 573.389C136.634 586.819 117.757 600.323 88.4942 617.631C59.9176 601.007 41.3386 587.834 28.8337 574.409C16.255 560.904 9.64101 546.942 5.5 528.315V5.5Z" fill="#134731" stroke="#88898D" stroke-width="11"/>
<path d="M78.0949 400.492L86.4477 402.675C86.4477 402.675 68.5723 417.451 46.019 424C46.019 424 74.9204 406.369 78.0949 400.492Z" fill="#88898D"/>
<path d="M116.759 250.265C119.309 250.544 120.132 248.717 121.157 247.232C121.377 246.914 121.354 246.442 120.968 246.16C120.478 245.801 120.014 246.043 119.612 246.336C118.384 247.23 117.431 248.35 116.759 250.265ZM104.568 250.329C105.338 250.465 105.862 250.174 105.61 249.609C104.918 248.055 103.948 246.65 102.296 245.986C101.696 245.745 101.318 246.32 101.432 246.832C101.834 248.635 103.167 249.623 104.568 250.329ZM127.208 305.563C125.661 298.77 130.159 291.588 122.944 286.618C122.209 289.175 122.873 291.611 120.77 293.469C120.048 292.087 120.377 290.689 120.229 289.403C119.931 286.825 118.991 284.712 116.356 283.864C111.79 282.394 110.497 278.819 110.27 274.532C110.144 272.138 109.465 270.308 108.051 268.042C103.067 260.057 97.6261 251.909 99.3121 241.56C99.6399 239.549 99.9746 237.518 101.255 235.941C106.503 229.47 102.37 221.063 96.5415 217.391C90.7127 213.721 85.1967 214.221 80.1167 218.862C69.9065 228.191 68.0942 243.657 75.6501 255.682C81.2263 264.556 88.6799 271.618 96.745 278.064C107.26 286.466 117.222 295.374 124.607 306.815C135.816 324.182 141.024 342.815 136.199 363.49C127.578 400.441 92.1191 406.468 69.0976 394.564C49.1363 384.242 36.0875 360.373 38.2295 337.937C39.0224 329.636 41.6707 322.027 48.1129 316.312C58.5205 307.079 74.8342 308.282 85.4793 319.116C91.4625 325.205 94.9107 332.75 96.8743 340.968C99.3893 351.495 99.2489 362.018 96.5195 372.531C95.7877 375.348 94.4285 376.707 91.5116 376.334C90.9202 376.259 90.3148 376.306 89.7174 376.267C85.1295 375.966 85.1786 375.963 85.0363 371.431C84.6263 358.366 81.0318 346.132 75.2421 334.518C73.7576 331.539 71.6596 328.958 68.6966 327.253C64.632 324.914 60.5714 325.848 58.0444 329.818C54.8408 334.851 54.7937 340.463 56.4627 345.801C60.2045 357.775 66.6738 368.016 77.4965 374.842C87.0501 380.868 105.652 381.022 112.619 365.954C115.711 359.263 117.081 352.196 116.309 344.868C114.548 328.145 106.266 314.871 94.1078 303.821C87.5984 297.905 80.7471 292.368 74.2658 286.422C64.8054 277.744 56.3675 268.148 52.9714 255.376C47.8914 236.275 52.373 217.701 68.9452 206.595C79.3268 199.637 90.5935 197.287 102.248 203.969C107.619 207.05 111.449 211.637 113.918 217.299C115.64 221.245 117.171 225.282 118.033 229.534C118.336 231.023 118.864 232.419 119.767 233.657C124.536 240.191 124.608 247.293 121.942 254.541C120.423 258.667 118.408 262.612 116.598 266.629C116.353 267.173 116.119 267.931 115.672 268.14C111.903 269.9 113.311 273.115 113.462 275.927C113.652 279.496 116.015 281.084 119.122 282.05C121.418 282.764 123.51 283.983 125.457 285.401C129.403 288.277 130.735 291.983 129.545 296.735C128.871 299.423 128.129 302.095 127.208 305.563Z" fill="#88898D"/>
</svg>
